<svg id="Layer_1" data-name="Layer 1" xmlns="http://www.w3.org/2000/svg" viewBox="0 0 425.79 198.43"><defs><style>.cls-1{fill:#414042;}</style></defs><path class="cls-1" d="M106.64,60.29a23.9,23.9,0,0,1,18.41,8.42l-2.29,2.08a21.14,21.14,0,0,0-16.12-7.38q-9.35,0-16.06,7.43a26,26,0,0,0-6.71,18,26,26,0,0,0,6.71,18,20.89,20.89,0,0,0,16.06,7.43,20.6,20.6,0,0,0,15.7-7V91.17H103V88.05h22.46v20.48l-.41.52a23.9,23.9,0,0,1-18.41,8.42q-10.71,0-18.29-8.42a29,29,0,0,1-7.59-20.17,29,29,0,0,1,7.59-20.17Q95.93,60.3,106.64,60.29Z"/><path class="cls-1" d="M134.82,61.74h3.12l25.47,48.45V61.74h3.12v54.38h-3.12L137.94,67.67v48.45h-3.12Z"/><path class="cls-1" d="M183.48,68.71q7.58-8.41,18.29-8.42t18.35,8.42a29,29,0,0,1,7.65,20.17,29,29,0,0,1-7.65,20.17q-7.63,8.42-18.35,8.42t-18.29-8.42a29.09,29.09,0,0,1-7.59-20.17A29.09,29.09,0,0,1,183.48,68.71Zm34.41,2.13q-6.76-7.43-16.12-7.43t-16.06,7.43a26,26,0,0,0-6.7,18,26,26,0,0,0,6.7,18,20.89,20.89,0,0,0,16.06,7.43q9.36,0,16.12-7.43a25.89,25.89,0,0,0,6.76-18A25.89,25.89,0,0,0,217.89,70.84Z"/><path class="cls-1" d="M230.26,61.74h31.29v3.12H247.41v51.26H244.3V64.86h-14Z"/><path class="cls-1" d="M269.77,61.74h3.12V96.68H299.5V61.74h3.12v54.38H299.5V99.8H272.89v16.32h-3.12V61.74Z"/><path class="cls-1" d="M312.91,61.74h24.54v3.12H316V86.8h10.19v3.12H316V113h20.48v3.12h-23.6Z"/><path class="cls-1" d="M88.55,140.82h2.09a6.61,6.61,0,0,1-.86,2.69,5,5,0,0,1-2,1.87,6.62,6.62,0,0,1-3.18.69,6,6,0,0,1-2.53-.52,5.74,5.74,0,0,1-2-1.48,6.8,6.8,0,0,1-1.25-2.32,9.54,9.54,0,0,1-.44-3v-1.57a9.54,9.54,0,0,1,.44-3,6.51,6.51,0,0,1,1.27-2.32,5.56,5.56,0,0,1,2-1.49,6.46,6.46,0,0,1,2.65-.52,6.28,6.28,0,0,1,3,.67,4.83,4.83,0,0,1,1.93,1.87,6.83,6.83,0,0,1,.85,2.75H88.55a6,6,0,0,0-.56-1.91A3,3,0,0,0,86.82,132a4.67,4.67,0,0,0-3.85,0,3.77,3.77,0,0,0-1.34,1.14,5.55,5.55,0,0,0-.81,1.77,9.13,9.13,0,0,0-.27,2.3v1.59a9,9,0,0,0,.25,2.19,5.67,5.67,0,0,0,.74,1.79,3.79,3.79,0,0,0,1.27,1.22,3.7,3.7,0,0,0,1.83.44,4.57,4.57,0,0,0,2.13-.43,2.77,2.77,0,0,0,1.2-1.22A6.16,6.16,0,0,0,88.55,140.82Z"/><path class="cls-1" d="M105.68,137.44v1a10.57,10.57,0,0,1-.45,3.2A6.89,6.89,0,0,1,104,144a5.62,5.62,0,0,1-2,1.51,6.3,6.3,0,0,1-2.61.52,6.18,6.18,0,0,1-2.57-.52,5.65,5.65,0,0,1-2-1.51,7.14,7.14,0,0,1-1.33-2.4,10.26,10.26,0,0,1-.46-3.2v-1a10.15,10.15,0,0,1,.46-3.19,6.94,6.94,0,0,1,1.31-2.4,5.56,5.56,0,0,1,2-1.52,6.15,6.15,0,0,1,2.57-.52,6.3,6.3,0,0,1,2.61.52,5.53,5.53,0,0,1,2,1.52,6.92,6.92,0,0,1,1.3,2.4A10.46,10.46,0,0,1,105.68,137.44Zm-2.08,1v-1a9.44,9.44,0,0,0-.29-2.5,5.16,5.16,0,0,0-.84-1.83,3.73,3.73,0,0,0-1.35-1.12,4.25,4.25,0,0,0-1.81-.38,4.07,4.07,0,0,0-1.77.38,3.81,3.81,0,0,0-1.35,1.12,5.36,5.36,0,0,0-.86,1.83,9,9,0,0,0-.31,2.5v1a9.15,9.15,0,0,0,.31,2.52,5.19,5.19,0,0,0,.87,1.83,3.75,3.75,0,0,0,1.36,1.13,4.1,4.1,0,0,0,1.77.38,4.18,4.18,0,0,0,1.81-.38,3.56,3.56,0,0,0,1.35-1.13,5.33,5.33,0,0,0,.83-1.83A10.06,10.06,0,0,0,103.6,138.44Z"/><path class="cls-1" d="M114.44,131.43l-5.24,14.43h-2.14l6-15.83h1.38Zm4.12,8.56v1.72h-8.89V140Zm.27,5.87-5.25-14.43,0-1.4h1.38L121,145.86Z"/><path class="cls-1" d="M132.54,140.82h2.09a6.76,6.76,0,0,1-.86,2.69,4.94,4.94,0,0,1-2,1.87,6.55,6.55,0,0,1-3.17.69,6,6,0,0,1-2.53-.52,5.56,5.56,0,0,1-1.95-1.48,7,7,0,0,1-1.26-2.32,9.83,9.83,0,0,1-.44-3v-1.57a9.83,9.83,0,0,1,.44-3,6.69,6.69,0,0,1,1.28-2.32,5.56,5.56,0,0,1,2-1.49,6.38,6.38,0,0,1,2.64-.52,6.3,6.3,0,0,1,3,.67,4.89,4.89,0,0,1,1.93,1.87,6.83,6.83,0,0,1,.85,2.75h-2.09a6,6,0,0,0-.56-1.91A3,3,0,0,0,130.8,132a4,4,0,0,0-2-.43,4,4,0,0,0-1.85.4,3.77,3.77,0,0,0-1.34,1.14,5.15,5.15,0,0,0-.81,1.77,9.13,9.13,0,0,0-.27,2.3v1.59a9,9,0,0,0,.25,2.19,5.67,5.67,0,0,0,.74,1.79,3.48,3.48,0,0,0,3.1,1.66,4.57,4.57,0,0,0,2.13-.43,2.77,2.77,0,0,0,1.2-1.22A6.16,6.16,0,0,0,132.54,140.82Z"/><path class="cls-1" d="M139.58,130v15.83h-2.1V130Zm8.24,6.8v1.71h-8.57v-1.71Zm1.82-6.8v15.83h-2.08V130Z"/><path class="cls-1" d="M155.61,130v15.83h-2.1V130Z"/><path class="cls-1" d="M171.59,130v15.83h-2.1l-8-12.21v12.21h-2.1V130h2.1l8,12.24V130Z"/><path class="cls-1" d="M187,138v5.8a5.41,5.41,0,0,1-.93,1,5.83,5.83,0,0,1-1.77.94,9,9,0,0,1-2.9.39,7,7,0,0,1-2.66-.5,6,6,0,0,1-2.1-1.48,6.9,6.9,0,0,1-1.37-2.37,9.73,9.73,0,0,1-.48-3.17v-1.23a10.89,10.89,0,0,1,.42-3.16,6.67,6.67,0,0,1,1.23-2.37,5.34,5.34,0,0,1,2-1.48,7,7,0,0,1,2.72-.5,6.75,6.75,0,0,1,3,.62,4.71,4.71,0,0,1,1.91,1.73,6.22,6.22,0,0,1,.89,2.5h-2.1a4.33,4.33,0,0,0-.56-1.57,3,3,0,0,0-1.19-1.13,4,4,0,0,0-2-.43,4.19,4.19,0,0,0-1.9.4,3.51,3.51,0,0,0-1.33,1.15,5.49,5.49,0,0,0-.77,1.82,10.32,10.32,0,0,0-.26,2.4v1.25a8.76,8.76,0,0,0,.32,2.45,5.43,5.43,0,0,0,.92,1.83,3.93,3.93,0,0,0,1.43,1.14,4.28,4.28,0,0,0,1.84.4,7.46,7.46,0,0,0,1.82-.19,3.68,3.68,0,0,0,1.08-.46,2.72,2.72,0,0,0,.6-.51v-3.54h-3.66V138Z"/><path class="cls-1" d="M198.61,137.07l2.37-1.68a4.81,4.81,0,0,0,1.06-.95,2,2,0,0,0,.38-1.29,1.67,1.67,0,0,0-.5-1.17,2.13,2.13,0,0,0-2.48-.24,1.92,1.92,0,0,0-.66.78,2.64,2.64,0,0,0-.21,1.06,2.4,2.4,0,0,0,.24,1,6.21,6.21,0,0,0,.66,1.09c.28.38.6.77,1,1.19l7.49,9h-2.42l-6.14-7.35c-.54-.64-1-1.23-1.45-1.76a8,8,0,0,1-1-1.55,3.55,3.55,0,0,1-.36-1.55,4.13,4.13,0,0,1,.49-2.1,3.24,3.24,0,0,1,1.39-1.3,4.68,4.68,0,0,1,2.08-.44,4.09,4.09,0,0,1,2,.46,3.4,3.4,0,0,1,1.3,1.22,3.16,3.16,0,0,1,.46,1.66,3.3,3.3,0,0,1-.28,1.36,3.84,3.84,0,0,1-.75,1.1,8.56,8.56,0,0,1-1.13,1L199,138.93a4.82,4.82,0,0,0-1.14,1.1,3,3,0,0,0-.46.92,2.75,2.75,0,0,0-.11.64,3.07,3.07,0,0,0,.34,1.42,2.53,2.53,0,0,0,1,1,3.49,3.49,0,0,0,1.73.39,4,4,0,0,0,1.78-.42,5,5,0,0,0,1.55-1.19,5.89,5.89,0,0,0,1.09-1.86,6.79,6.79,0,0,0,.41-2.4H207a9.45,9.45,0,0,1-.2,2,7,7,0,0,1-.64,1.78,6.32,6.32,0,0,1-1.09,1.5.54.54,0,0,0-.15.22.63.63,0,0,1-.16.23,5,5,0,0,1-2,1.32,6.69,6.69,0,0,1-2.39.44,6,6,0,0,1-2.72-.57,4.35,4.35,0,0,1-1.77-1.59,4.4,4.4,0,0,1-.62-2.32,3.61,3.61,0,0,1,.43-1.76,5.39,5.39,0,0,1,1.19-1.42A19,19,0,0,1,198.61,137.07Z"/><path class="cls-1" d="M224.92,140.82H227a6.76,6.76,0,0,1-.86,2.69,4.94,4.94,0,0,1-2,1.87,6.58,6.58,0,0,1-3.17.69,6,6,0,0,1-2.53-.52,5.56,5.56,0,0,1-1.95-1.48,6.82,6.82,0,0,1-1.26-2.32,9.83,9.83,0,0,1-.44-3v-1.57a9.83,9.83,0,0,1,.44-3,6.83,6.83,0,0,1,1.27-2.32,5.68,5.68,0,0,1,2-1.49,6.38,6.38,0,0,1,2.64-.52,6.3,6.3,0,0,1,3,.67,4.89,4.89,0,0,1,1.93,1.87,7,7,0,0,1,.85,2.75h-2.09a6,6,0,0,0-.56-1.91,3,3,0,0,0-1.18-1.23,4.65,4.65,0,0,0-3.84,0,3.77,3.77,0,0,0-1.34,1.14,5.15,5.15,0,0,0-.81,1.77,9.13,9.13,0,0,0-.27,2.3v1.59a9.54,9.54,0,0,0,.24,2.19,5.92,5.92,0,0,0,.75,1.79,3.48,3.48,0,0,0,3.1,1.66,4.57,4.57,0,0,0,2.13-.43,2.77,2.77,0,0,0,1.2-1.22A6.44,6.44,0,0,0,224.92,140.82Z"/><path class="cls-1" d="M242,137.44v1a10.58,10.58,0,0,1-.44,3.2,7.06,7.06,0,0,1-1.28,2.4,5.62,5.62,0,0,1-2,1.51,6.3,6.3,0,0,1-2.61.52,6.23,6.23,0,0,1-2.58-.52,5.74,5.74,0,0,1-2-1.51,7,7,0,0,1-1.32-2.4,10.25,10.25,0,0,1-.47-3.2v-1a10.14,10.14,0,0,1,.47-3.19,6.92,6.92,0,0,1,1.3-2.4,5.65,5.65,0,0,1,2-1.52,6.21,6.21,0,0,1,2.57-.52,6.32,6.32,0,0,1,2.62.52,5.53,5.53,0,0,1,2,1.52,6.9,6.9,0,0,1,1.29,2.4A10.46,10.46,0,0,1,242,137.44Zm-2.07,1v-1a9.87,9.87,0,0,0-.29-2.5,5.16,5.16,0,0,0-.84-1.83,3.68,3.68,0,0,0-1.36-1.12,4.18,4.18,0,0,0-1.81-.38,4,4,0,0,0-1.76.38,3.73,3.73,0,0,0-1.35,1.12,5.56,5.56,0,0,0-.87,1.83,9.41,9.41,0,0,0-.3,2.5v1a9.57,9.57,0,0,0,.3,2.52,5.38,5.38,0,0,0,.88,1.83,3.67,3.67,0,0,0,1.36,1.13,4,4,0,0,0,1.77.38,4.18,4.18,0,0,0,1.81-.38,3.46,3.46,0,0,0,1.34-1.13,5.16,5.16,0,0,0,.84-1.83A10.55,10.55,0,0,0,240,138.44Z"/><path class="cls-1" d="M254.23,130h2.09v10.7a5.22,5.22,0,0,1-.79,3,5,5,0,0,1-2.11,1.78,6.88,6.88,0,0,1-2.84.59,7,7,0,0,1-2.91-.59,4.68,4.68,0,0,1-2-1.78,5.37,5.37,0,0,1-.76-3V130h2.08v10.7a4.18,4.18,0,0,0,.45,2.05,2.89,2.89,0,0,0,1.28,1.19,4.4,4.4,0,0,0,1.91.4,4.45,4.45,0,0,0,1.92-.4,2.89,2.89,0,0,0,1.28-1.19,4.18,4.18,0,0,0,.45-2.05Z"/><path class="cls-1" d="M271.79,130v15.83h-2.11l-8-12.21v12.21h-2.1V130h2.1l8,12.24V130Z"/><path class="cls-1" d="M283.93,141.85a2.72,2.72,0,0,0-.16-1,2,2,0,0,0-.59-.78,4.79,4.79,0,0,0-1.15-.66,17,17,0,0,0-1.86-.64,15.73,15.73,0,0,1-2.12-.78,7,7,0,0,1-1.62-1,4,4,0,0,1-1-1.27,3.64,3.64,0,0,1-.36-1.65,3.89,3.89,0,0,1,.38-1.7,4,4,0,0,1,1.09-1.37,5.37,5.37,0,0,1,1.71-.91,7.17,7.17,0,0,1,2.2-.32,6.17,6.17,0,0,1,3,.68,4.86,4.86,0,0,1,1.9,1.77,4.53,4.53,0,0,1,.65,2.33h-2.09a3.27,3.27,0,0,0-.38-1.58,2.7,2.7,0,0,0-1.15-1.09,4.36,4.36,0,0,0-2-.39,4.54,4.54,0,0,0-1.85.33,2.33,2.33,0,0,0-1.43,2.23,1.94,1.94,0,0,0,.21.91,2.42,2.42,0,0,0,.66.76,5.64,5.64,0,0,0,1.16.64,14.3,14.3,0,0,0,1.68.56,15.67,15.67,0,0,1,2.32.85,6.67,6.67,0,0,1,1.62,1.05,3.79,3.79,0,0,1,.94,1.31,4.2,4.2,0,0,1,.31,1.66,3.85,3.85,0,0,1-.39,1.75,3.69,3.69,0,0,1-1.12,1.34,5.33,5.33,0,0,1-1.74.85,8,8,0,0,1-2.27.3,7.93,7.93,0,0,1-2.16-.3,6.54,6.54,0,0,1-1.92-.91,4.63,4.63,0,0,1-1.38-1.51,4,4,0,0,1-.52-2.08h2.09a2.86,2.86,0,0,0,.31,1.39,2.79,2.79,0,0,0,.87,1,3.85,3.85,0,0,0,1.25.56,5.84,5.84,0,0,0,1.46.18,5.09,5.09,0,0,0,1.86-.31,2.48,2.48,0,0,0,1.16-.87A2.3,2.3,0,0,0,283.93,141.85Z"/><path class="cls-1" d="M290.82,130v15.83h-2.1V130Zm7.85,0v1.71h-8.28V130Zm-1,6.8v1.71h-7.28v-1.71Zm1.1,7.32v1.71h-8.38v-1.71Z"/><path class="cls-1" d="M303.47,130v15.83h-2.1V130Zm7.5,14.12v1.71h-7.91v-1.71Z"/><path class="cls-1" d="M315.61,130v15.83h-2.09V130Z"/><path class="cls-1" d="M331.6,130v15.83h-2.11l-8-12.21v12.21h-2.1V130h2.1l8,12.24V130Z"/><path class="cls-1" d="M347,138v5.8a5.07,5.07,0,0,1-.93,1,5.83,5.83,0,0,1-1.77.94,9,9,0,0,1-2.9.39,7,7,0,0,1-2.66-.5,5.91,5.91,0,0,1-2.09-1.48,6.75,6.75,0,0,1-1.37-2.37,9.46,9.46,0,0,1-.49-3.17v-1.23a10.89,10.89,0,0,1,.42-3.16,6.52,6.52,0,0,1,1.24-2.37,5.26,5.26,0,0,1,2-1.48,7,7,0,0,1,2.71-.5,6.72,6.72,0,0,1,3,.62,4.74,4.74,0,0,1,1.92,1.73,6.21,6.21,0,0,1,.88,2.5h-2.1a4.33,4.33,0,0,0-.56-1.57,3,3,0,0,0-1.19-1.13,4,4,0,0,0-2-.43,4.19,4.19,0,0,0-1.9.4,3.41,3.41,0,0,0-1.32,1.15,5.3,5.3,0,0,0-.78,1.82,10.32,10.32,0,0,0-.26,2.4v1.25a8.76,8.76,0,0,0,.32,2.45,5.62,5.62,0,0,0,.92,1.83,4,4,0,0,0,1.43,1.14,4.31,4.31,0,0,0,1.84.4,7.4,7.4,0,0,0,1.82-.19,3.75,3.75,0,0,0,1.09-.46,2.88,2.88,0,0,0,.59-.51v-3.54h-3.66V138Z"/></svg>